<svg width="140" height="140" viewBox="0 0 140 140" fill="none" xmlns="http://www.w3.org/2000/svg">
<circle cx="70" cy="70" r="65" stroke="#F59A47" stroke-width="10"/>
<path d="M0 70H140" stroke="#F59A47" stroke-width="10"/>
<path d="M70 140L70 2.11596e-06" stroke="#F59A47" stroke-width="10"/>
<path d="M116.9 119C116.9 119 101.574 106.015 95.8999 95.9C90.3855 86.0699 88.8999 81.2712 88.8999 70C88.8999 58.7288 90.3855 53.9301 95.8999 44.1C101.574 33.9849 116.9 21 116.9 21" stroke="#F59A47" stroke-width="10"/>
<path d="M23.1001 119C23.1001 119 38.4258 106.015 44.1001 95.9C49.6145 86.0699 51.1001 81.2712 51.1001 70C51.1001 58.7288 49.6145 53.9301 44.1001 44.1C38.4258 33.9849 23.1001 21 23.1001 21" stroke="#F59A47" stroke-width="10"/>
</svg>
